<svg id="Layer_1" data-name="Layer 1" xmlns="http://www.w3.org/2000/svg" viewBox="0 0 463.16 688.02" opacity="0.25"><defs><style>.cls-1{fill:#fff;}.cls-2{fill:#b9131a;}</style></defs><title>dd</title><path class="cls-1" d="M421.05,40.79c12.75,8.46,33,30.7,37,43.05S442.53,172,442.53,172L340.4,236l-136.28-8.69-9.94-28.56,159-69.54,8.38-39.11" transform="translate(-3.84 -5)"/><path class="cls-1" d="M293.21,39.21C308,41.3,333.74,51.47,349.62,56.64s34.11,52.84,34.11,52.84L205.39,179.76l-27.92-14.25s4.48-58.69,10.5-61" transform="translate(-3.84 -5)"/><path class="cls-1" d="M161.05,663.34c8.71-3.74,33.76-14,41.43-17.17,0-.15,0-.3,0-.45-8.11,1.73-36,7.66-43.69,8.84C149.8,656,150.72,667.8,161.05,663.34Z" transform="translate(-3.84 -5)"/><path class="cls-1" d="M158,645.07c9.45-.68,36.4-2.16,44.73-2.62,0-.14,0-.29.06-.43-8.42-1-36.43-4.59-44-6C149.81,634.4,146.79,645.89,158,645.07Z" transform="translate(-3.84 -5)"/><path class="cls-1" d="M160.1,627.64c9.11,2.45,35,9.87,43,12.19,0-.16,0-.32.07-.47-7.84-3.87-32.78-16.22-39.43-20C155.85,614.86,149.23,624.73,160.1,627.64Z" transform="translate(-3.84 -5)"/><path class="cls-1" d="M322,663.18c7.94,4.5,14.56-5.36,3.69-8.28-9.33-2.5-36.18-10.21-43.58-12.34,0,.14.05.28.07.43C289.57,646.61,315.27,659.34,322,663.18Z" transform="translate(-3.84 -5)"/><path class="cls-1" d="M106.65,186.87a4.66,4.66,0,0,0,3.23-8c-25.38-24.32-12-62.67-11.85-63.15a4.66,4.66,0,1,0-8.77-3.18c-.66,1.8-15.69,44.46,14.16,73.07A4.69,4.69,0,0,0,106.65,186.87Z" transform="translate(-3.84 -5)"/><path class="cls-1" d="M411.64,333.17V223.43a160.44,160.44,0,0,1-23.46,15c-41.73,21.9-178.93,54.54-264.47-29.35l-5.37-6.61s-6.61,2.9-9.09,5-16.53,7-22.32,7.85-18.18,7.44-23.55,13.23-6.56,8.14-6.56,8.14L56.19,368c0,.34,0,.67,0,1v18.43c6.7-5.17,16.14-6.67,25.42-11.61A90.25,90.25,0,0,1,93,348.18a59.75,59.75,0,0,1,93.53-11.58,58.67,58.67,0,0,1,5.57,5.58,59.8,59.8,0,0,1-59.62,99.67C105.48,438,81.29,419,80.3,383.4c-13.68,6.26-20.87,14.17-23.9,26.1,6.07,105.35,126.94,151.43,128.19,151.9l1.15.43.48,1.11c.64,1.44,16,35.37,61.06,35.37,44.15,0,46.25-39.12,46.31-40.78l.08-1.88,1.75-.68c44.83-17.4,77.5-47.12,97.09-88.35,17.15-36.08,17.34-67.29,17.34-68.6V371.65h2.86a17.46,17.46,0,0,1-1.07-6Zm-74.79,27.77c9.13,0,16.53,15,16.53,33.45s-7.4,33.46-16.53,33.46-16.52-15-16.52-33.46S327.73,360.94,336.85,360.94ZM250.08,586.68c-17.94,0-36-9.66-36-31.25a2.48,2.48,0,0,1,5,0c0,20.75,19.54,26.29,31.09,26.29,13.42,0,20.33-11.59,20.33-16.54C270.41,551,262.57,551,260,551c-9.18,0-10.06,9.7-10.09,10.12a2.48,2.48,0,0,1-4.95-.4c.41-5.07,4.07-14.68,15-14.68,9.91,0,15.37,6.81,15.37,19.17C275.37,572.48,266.44,586.68,250.08,586.68ZM219.59,511a2.49,2.49,0,0,1,3.5,0,14,14,0,0,0,19.81,0,2.47,2.47,0,1,1,3.5,3.5,18.94,18.94,0,0,1-26.81,0A2.48,2.48,0,0,1,219.59,511Zm115.15-4.27c-30.17,13.64-46.34,13.64-67.52,7.54a63.31,63.31,0,0,1-31.43-20.83,63.36,63.36,0,0,1-31.43,20.83c-21.19,6.1-37.35,6.1-67.52-7.54s-24.06-36.64-19-44.9,26.57-11.84,33-.36,1.08,21.2-6.11,24.07-13.08,2.69-16.31-4.13,4-12.47,4-12.47,1.4-.46,1,6.36,6.94,8.08,11.61,3.77,1.08-12.57-2.87-15.8-20.11-2.87-20.11,11.85,12.21,19,18.67,19,12.57,1.07,28.73-16.16,23.71-26.22,41.31-28.37c15.55-1.91,23.35,11.59,25,14.76,1.6-3.17,9.41-16.67,25-14.76,17.6,2.15,25.14,11.13,41.3,28.37s22.28,16.16,28.73,16.16,18.68-4.31,18.68-19-16.17-15.08-20.11-11.85-7.54,11.49-2.87,15.8,12,3.05,11.6-3.77,1-6.36,1-6.36,7.26,5.64,4,12.47-9.13,7-16.32,4.13-12.56-12.57-6.1-24.07,28-7.89,33,.36S364.9,493.09,334.74,506.74Z" transform="translate(-3.84 -5)"/><path class="cls-1" d="M327,628c9-1.39,8.09-13.23-2.24-8.78-10.12,4.35-42.29,17.53-43.62,18.08h0C282.55,637,318.19,629.35,327,628Z" transform="translate(-3.84 -5)"/><path class="cls-1" d="M446.6,365.67a17.48,17.48,0,0,1-31,11.05V398a141.47,141.47,0,0,1-2.39,22.53,43.68,43.68,0,0,0,33.41-69.88Z" transform="translate(-3.84 -5)"/><path class="cls-1" d="M196.76,401.59A57.16,57.16,0,1,0,87.13,378.91c0,1.25.05,2.48.13,3.7a56.73,56.73,0,0,0,7.41,24.63,57.61,57.61,0,0,0,5.48,8,58.23,58.23,0,0,0,6.72,6.88,57.1,57.1,0,0,0,89.89-20.49Zm-94.62,4.64a1.94,1.94,0,0,1-1.39-.58,2,2,0,0,1,0-2.79l17.61-17.62L136.9,366.7l30.48-30.47a2,2,0,0,1,2.79,2.79l-29.95,30-23,23-13.68,13.68A1.94,1.94,0,0,1,102.14,406.23Zm10.62,9.17a6,6,0,0,1-4.18-10.23l8.28-8.13,25.78-25.32,29.94-29.39a6,6,0,1,1,8.36,8.51l-33.1,32.5-29.7,29.18-1.2,1.17A6,6,0,0,1,112.76,415.4Zm7.8,5.18a1.89,1.89,0,0,1-2.59-.13,2,2,0,0,1,0-2.8l1.18-1.18L148.67,387,184.6,351a2,2,0,1,1,2.79,2.8l-38,38-28.66,28.66A2.26,2.26,0,0,1,120.56,420.58Zm5.73,5.63a1.29,1.29,0,0,1-.93-.38,1.32,1.32,0,0,1,0-1.87l24.5-24.5,40.95-41a1.33,1.33,0,0,1,1.88,1.87l-43,42.95-22.5,22.51A1.31,1.31,0,0,1,126.29,426.21Zm3.36,1.44a.66.66,0,0,1-.47-1.13l20.33-20.33,42.4-42.4a.66.66,0,0,1,.94,0,.65.65,0,0,1,0,.93l-43.61,43.61-19.13,19.13A.65.65,0,0,1,129.65,427.65Zm3.75,1.23a.66.66,0,0,1-.47-1.13l15.68-15.68,44.24-44.24a.66.66,0,0,1,.94,0,.65.65,0,0,1,0,.93L148.05,414.5l-14.18,14.19A.66.66,0,0,1,133.4,428.88Zm6.39,1.27c-.91.09-1.48.12-1.63.13l-2.44.14,10.7-10.7,47.85-47.86.66.66.66.66-.59.59.85-.11c.1.74,2.19,18.28-12.37,36.49C170.68,426.15,146.36,429.52,139.79,430.15Z" transform="translate(-3.84 -5)"/><path class="cls-1" d="M20.09,368v-19.5A43.67,43.67,0,0,0,46.28,420c-1.08-9.62-.42-18.46,4.13-26V381.19A18,18,0,0,1,20.09,368Z" transform="translate(-3.84 -5)"/><path class="cls-1" d="M327.05,646.5c9,1.65,12-9.84.76-9-10,.72-39.76,2.35-46,2.69l0,.22C288.29,641.18,319,645,327.05,646.5Z" transform="translate(-3.84 -5)"/><path d="M459.67,164.92c8.22-16.45,12-45.52-2.07-82.28v0s-2.34,49.35-50.68,93.16C343.83,233,216.09,216.1,216.09,216.1c112.81-11.58,140.5-45.32,176.75-79.56s28.21-95.75,28.21-95.75C389.85,19.35,350.16,5,350.16,5c15.71,18.6,18.6,34.71,15.29,44.22-2.43,7-9.55,9.25-20.52,6.55h0c6.48,46.12-30.14,67.18-89.07,94.37-42.23,19.49-62.44,12.08-62.44,12.08,94.16-38.77,105.24-60.93,115.82-84.59s-8.89-36.84-8.89-36.84h0c-26.95-6.33-66.54-11-113.42-5.62C115.45,43.43,90.65,93,90.65,93c-16.94-3.72-41.73-2.48-66.11,25.21s-4.45,66.53-4.45,66.53V340.27a49.4,49.4,0,0,0,27,85.65c3.46,20.32,12.33,43.46,7.89,64.92,11.5-5.34,12.7-14.32,10.52-25,11.12,22.61,28.27,43.52,51.09,62a263,263,0,0,0,64.89,38.54c3.29,6.39,21.66,37.68,65.76,37.68,43.86,0,50.82-35.64,51.86-44.38,45.4-18,78.55-48.5,98.54-90.58a191.54,191.54,0,0,0,14.39-42.77A49.41,49.41,0,0,0,446.6,342V186.76A173,173,0,0,0,459.67,164.92ZM89.26,112.51A4.66,4.66,0,1,1,98,115.69c-.17.48-13.53,38.83,11.85,63.15a4.67,4.67,0,0,1-6.46,6.74C73.57,157,88.6,114.31,89.26,112.51ZM50.41,394c-4.55,7.54-5.21,16.38-4.13,26a43.67,43.67,0,0,1-26.19-71.54V368a18,18,0,0,0,30.32,13.21Zm359.44-22.37V398c0,1.31-.19,32.52-17.34,68.6-19.59,41.23-52.26,71-97.09,88.35l-1.75.68-.08,1.88c-.06,1.66-2.16,40.78-46.31,40.78-45,0-60.42-33.93-61.06-35.37l-.48-1.11-1.15-.43c-1.25-.47-122.12-46.55-128.19-151.9,3-11.93,10.22-19.84,23.9-26.1,1,35.58,25.18,54.58,52.18,58.45a59.79,59.79,0,0,0,59.62-99.67,58.67,58.67,0,0,0-5.57-5.58A59.75,59.75,0,0,0,93,348.18a90.25,90.25,0,0,0-11.44,27.63c-9.28,4.94-18.72,6.44-25.42,11.61V369c0-.34,0-.67,0-1l.63-131.28s1.19-2.36,6.56-8.14,17.77-12.4,23.55-13.23,19.84-5.78,22.32-7.85,9.09-5,9.09-5l5.37,6.61c85.54,83.89,222.74,51.25,264.47,29.35a160.44,160.44,0,0,0,23.46-15V365.67a17.46,17.46,0,0,0,1.07,6ZM144.29,436.08a56.93,56.93,0,0,1-37.42-14,58.23,58.23,0,0,1-6.72-6.88,57.61,57.61,0,0,1-5.48-8,56.73,56.73,0,0,1-7.41-24.63c-.08-1.22-.13-2.45-.13-3.7a57.16,57.16,0,1,1,57.16,57.17Zm23.4-2.12-.38.16Zm34.15-25.13c.16-.34.31-.67.46-1C202.15,408.16,202,408.49,201.84,408.83Zm1.11-2.52q.28-.71.57-1.44Q203.24,405.61,203,406.31Zm1.06-2.8c.16-.47.32-.93.47-1.39C204.33,402.58,204.17,403,204,403.51Zm1.07-3.39c.07-.26.15-.52.22-.78C205.23,399.6,205.15,399.86,205.08,400.12Zm1.9-10.35c0-.37.05-.73.08-1.1C207,389,207,389.4,207,389.77Zm248.37-12.89a43.76,43.76,0,0,1-42.16,43.67A141.47,141.47,0,0,0,415.58,398v-21.3a17.48,17.48,0,0,0,31-11.05v-15A43.52,43.52,0,0,1,455.35,376.88Z" transform="translate(-3.84 -5)"/><path d="M336.85,427.85c9.13,0,16.53-15,16.53-33.46s-7.4-33.45-16.53-33.45-16.52,15-16.52,33.45S327.73,427.85,336.85,427.85Z" transform="translate(-3.84 -5)"/><path d="M260,546c-11,0-14.63,9.61-15,14.68a2.48,2.48,0,0,0,4.95.4c0-.42.91-10.12,10.09-10.12,2.57,0,10.41,0,10.41,14.21,0,5-6.91,16.54-20.33,16.54-11.55,0-31.09-5.54-31.09-26.29a2.48,2.48,0,0,0-5,0c0,21.59,18.1,31.25,36,31.25,16.36,0,25.29-14.2,25.29-21.5C275.37,552.82,269.91,546,260,546Z" transform="translate(-3.84 -5)"/><path d="M281.15,637.28c1.33-.55,33.5-13.73,43.62-18.08C335.1,614.75,336,626.59,327,628c-8.82,1.37-44.46,9-45.86,9.31.24.94.46,1.9.64,2.87,6.26-.34,36-2,46-2.69,11.22-.81,8.2,10.68-.76,9-8-1.46-38.76-5.32-45.23-6.12.13.72.25,1.44.33,2.18,7.4,2.13,34.25,9.84,43.58,12.34,10.87,2.92,4.25,12.78-3.69,8.28-6.77-3.84-32.47-16.57-39.82-20.19a39.63,39.63,0,0,1,.23,4.25,40.39,40.39,0,0,1-1,8.72L358.92,693V589.52l-80.18,41A39.36,39.36,0,0,1,281.15,637.28Z" transform="translate(-3.84 -5)"/><path d="M202.48,646.17c-7.67,3.14-32.72,13.43-41.43,17.17-10.33,4.46-11.25-7.39-2.24-8.78,7.67-1.18,35.58-7.11,43.69-8.84,0-1.1.11-2.19.24-3.27-8.33.46-35.28,1.94-44.73,2.62-11.22.82-8.2-10.67.77-9,7.59,1.39,35.6,4.93,44,6,.1-.74.2-1.47.34-2.19-8.08-2.32-33.93-9.74-43-12.19-10.87-2.91-4.25-12.78,3.68-8.28,6.65,3.78,31.59,16.13,39.43,20a40.09,40.09,0,0,1,2.9-8.83l-80.16-41V693l77.13-38.74a39.81,39.81,0,0,1-.66-7C202.42,646.88,202.47,646.53,202.48,646.17Z" transform="translate(-3.84 -5)"/><path d="M320.73,461.48c-6.46,11.5-1.08,21.2,6.1,24.07s13.08,2.69,16.32-4.13-4-12.47-4-12.47-1.4-.46-1,6.36-6.94,8.08-11.6,3.77-1.08-12.57,2.87-15.8,20.11-2.87,20.11,11.85-12.21,19-18.68,19-12.57,1.07-28.73-16.16-23.7-26.22-41.3-28.37c-15.55-1.91-23.36,11.59-25,14.76-1.61-3.17-9.41-16.67-25-14.76-17.6,2.15-25.14,11.13-41.31,28.37s-22.27,16.16-28.73,16.16-18.67-4.31-18.67-19,16.15-15.08,20.11-11.85,7.54,11.49,2.87,15.8-12,3.05-11.61-3.77-1-6.36-1-6.36-7.26,5.64-4,12.47,9.13,7,16.31,4.13,12.57-12.57,6.11-24.07-28-7.89-33,.36-11.14,31.25,19,44.9,46.33,13.64,67.52,7.54a63.36,63.36,0,0,0,31.43-20.83,63.31,63.31,0,0,0,31.43,20.83c21.18,6.1,37.35,6.1,67.52-7.54s24.05-36.64,19-44.9S327.19,450,320.73,461.48Z" transform="translate(-3.84 -5)"/><path d="M233,520.08a18.8,18.8,0,0,0,13.41-5.56,2.47,2.47,0,1,0-3.5-3.5,14,14,0,0,1-19.81,0,2.48,2.48,0,1,0-3.5,3.51A18.8,18.8,0,0,0,233,520.08Z" transform="translate(-3.84 -5)"/><path d="M147.84,383.34l33.1-32.5a6,6,0,1,0-8.36-8.51l-29.94,29.39L116.86,397l-8.28,8.13a6,6,0,1,0,8.36,8.52l1.2-1.17Z" transform="translate(-3.84 -5)"/><path d="M187.39,353.82a2,2,0,1,0-2.79-2.8L148.67,387l-29.52,29.52L118,417.65a2,2,0,0,0,1.39,3.38,2,2,0,0,0,1.2-.45,2.26,2.26,0,0,0,.2-.13l28.66-28.66Z" transform="translate(-3.84 -5)"/><path d="M140.22,369l29.95-30a2,2,0,0,0-2.79-2.79L136.9,366.7l-18.54,18.54-17.61,17.62a2,2,0,0,0,0,2.79,2,2,0,0,0,2.79,0L117.22,392Z" transform="translate(-3.84 -5)"/><path d="M192.69,360.37a1.33,1.33,0,0,0-1.88-1.87l-40.95,41L125.36,424a1.32,1.32,0,0,0,0,1.87,1.29,1.29,0,0,0,.93.38,1.31,1.31,0,0,0,.94-.38l22.5-22.51Z" transform="translate(-3.84 -5)"/><path d="M192.85,364.72a.65.65,0,0,0,0-.93.66.66,0,0,0-.94,0l-42.4,42.4-20.33,20.33a.66.66,0,0,0,.47,1.13.65.65,0,0,0,.46-.19l19.13-19.13Z" transform="translate(-3.84 -5)"/><path d="M193.79,368.76a.65.65,0,0,0,0-.93.66.66,0,0,0-.94,0l-44.24,44.24-15.68,15.68a.66.66,0,0,0,.94.94l14.18-14.19Z" transform="translate(-3.84 -5)"/><path d="M195.85,373.66l-.85.11.59-.59-.66-.66-.66-.66-47.85,47.86-10.7,10.7,2.44-.14c.15,0,.72,0,1.63-.13,6.57-.63,30.89-4,43.69-20C198,391.94,196,374.4,195.85,373.66Z" transform="translate(-3.84 -5)"/><path class="cls-1" d="M264.42,669c-1.7,1.06-4.38.08-4.38.08a28.68,28.68,0,0,1-8.88-5.93c-2-2.17-4.21-4.93-6.52-7.72A20,20,0,0,0,249.05,640c-1.31-6.7-7.2-15.47-16.9-16.55s-9.25,8.91-8.42,13c.22,1.08.82,3.17,1.59,5.68-10.56-.2-8.48,6.2-8.48,6.2a17.88,17.88,0,0,0,14.31,11.65c.08.24.15.43.19.56a6.31,6.31,0,0,0,2.86,3.33c.59.38.52-.31.52-.31-.21-1-.41-2.18-.59-3.37a13.91,13.91,0,0,0,8.13-2.52c.79,1.24,1.52,2.44,2.16,3.52,3.48,5.89,9.28,10.8,13.17,11.24s5.69-.54,6.57-1.12c1.48-1,1.23-2.07,1.23-2.07A.73.73,0,0,0,264.42,669Zm-43.57-20.2c-.71-3.57,1-4.66,5.23-4.3,1.37,4.35,3,9.31,4.11,12.58C226.45,656.13,221.62,652.65,220.85,648.82Zm7.66-4,.25,0c.2,0,.41.11.61.16a5.63,5.63,0,0,1-.15,2.13A7.86,7.86,0,0,1,228.51,644.82Zm5.22,12.59c-.49-3.62-.89-7.52-1.19-10.94,2.83,1.87,5.5,5,7.78,8.25A9.29,9.29,0,0,1,233.73,657.41Zm8.21-5.15c-3.09-3.56-6.34-6.8-9.64-8.6-.31-3.94-.48-6.74-.48-6.74,0-.72-.93-1.19-1.4-1.45s-.4-.13-.71.39a16,16,0,0,0-.46,4.18c0,.16,0,1.2.07,2.44a7.26,7.26,0,0,0-1-.22l-.33,0c-.09-.48-.16-.81-.16-.81-1.53-4.75-4.11-16,4.32-15s10.59,14.5,10.59,14.5C243.51,646.16,243.06,649.78,241.94,652.26Z" transform="translate(-3.84 -5)"/><path class="cls-1" d="M257.44,612.13a38.19,38.19,0,0,0-52.5,28.09s0,.08,0,.12c-.11.63-.2,1.27-.29,1.91,0,0,0,.06,0,.1-.13,1-.21,2-.25,3a.22.22,0,0,0,0,.08c0,.61-.09,1.21-.09,1.84a38.14,38.14,0,1,0,53.17-35.11Zm21.27,42.51a37,37,0,1,1,.74-7.4A37,37,0,0,1,278.71,654.64Z" transform="translate(-3.84 -5)"/><path class="cls-2" d="M282.22,643c0-.15-.05-.29-.07-.43-.08-.74-.2-1.46-.33-2.18l0-.22c-.18-1-.4-1.93-.64-2.87h0a39.36,39.36,0,0,0-2.41-6.79,40,40,0,0,0-75.53,8.87c0,.15,0,.31-.07.47-.14.72-.24,1.45-.34,2.19,0,.14-.05.29-.06.43-.13,1.08-.2,2.17-.24,3.27,0,.15,0,.3,0,.45,0,.36-.06.71-.06,1.07A40,40,0,0,0,281.47,656a40.39,40.39,0,0,0,1-8.72A39.63,39.63,0,0,0,282.22,643Zm-2.45,12.16a38.19,38.19,0,0,1-75.5-7.91c0-.63.06-1.23.09-1.84a.22.22,0,0,1,0-.08c0-1,.12-2,.25-3,0,0,0-.07,0-.1.09-.64.18-1.28.29-1.91,0,0,0-.08,0-.12a38.31,38.31,0,0,1,19.27-26.53,38.15,38.15,0,0,1,55.56,41.46Z" transform="translate(-3.84 -5)"/><path class="cls-2" d="M220.85,648.82c.77,3.83,5.6,7.31,9.34,8.28-1.1-3.27-2.74-8.23-4.11-12.58C221.84,644.16,220.14,645.25,220.85,648.82Z" transform="translate(-3.84 -5)"/><path class="cls-2" d="M228.76,644.85l-.25,0a7.86,7.86,0,0,0,.71,2.32,5.63,5.63,0,0,0,.15-2.13C229.17,645,229,644.89,228.76,644.85Z" transform="translate(-3.84 -5)"/><path class="cls-2" d="M232.54,646.47c.3,3.42.7,7.32,1.19,10.94a9.29,9.29,0,0,0,6.59-2.69C238,651.48,235.37,648.34,232.54,646.47Z" transform="translate(-3.84 -5)"/><path class="cls-2" d="M232.12,626.39c-8.43-.93-5.85,10.28-4.32,15,0,0,.07.33.16.81l.33,0a7.26,7.26,0,0,1,1,.22c0-1.24-.08-2.28-.07-2.44a16,16,0,0,1,.46-4.18c.31-.52.23-.65.71-.39s1.42.73,1.4,1.45c0,0,.17,2.8.48,6.74,3.3,1.8,6.55,5,9.64,8.6,1.12-2.48,1.57-6.1.77-11.37C242.71,640.89,240.56,627.33,232.12,626.39Z" transform="translate(-3.84 -5)"/><path class="cls-2" d="M242.43,610.21a37.09,37.09,0,1,0,33.65,21.64A37,37,0,0,0,242.43,610.21Zm21.73,61c-.88.58-2.67,1.55-6.57,1.12s-9.69-5.35-13.17-11.24c-.64-1.08-1.37-2.28-2.16-3.52a13.91,13.91,0,0,1-8.13,2.52c.18,1.19.38,2.34.59,3.37,0,0,.07.69-.52.31a6.31,6.31,0,0,1-2.86-3.33c0-.13-.11-.32-.19-.56a17.88,17.88,0,0,1-14.31-11.65s-2.08-6.4,8.48-6.2c-.77-2.51-1.37-4.6-1.59-5.68-.83-4-1.27-14,8.42-13s15.59,9.85,16.9,16.55a20,20,0,0,1-4.41,15.47c2.31,2.79,4.5,5.55,6.52,7.72A28.68,28.68,0,0,0,260,669.1s2.68,1,4.38-.08a.73.73,0,0,1,1,.16S265.64,670.29,264.16,671.25Z" transform="translate(-3.84 -5)"/></svg>