<svg id="Layer_1" data-name="Layer 1" xmlns="http://www.w3.org/2000/svg" viewBox="0 0 394.1 147.85"><defs><style>.cls-1{fill:#bc171b;}</style></defs><title>Rubicon_Logo</title><path d="M25.94,129.83c-2.3,0-3.65-13-3.65-19.76V80c0-2.88-1.15-5-3.26-5H15.39v54.87H.42V2.06H19.8c7.48,0,16.88,3.84,16.88,20.14V54.82c0,5.94-2.88,9.78-6.9,13.23,4,3.27,7.29,7.1,7.29,13.24v27.24A128.39,128.39,0,0,0,39,129.26v.57Zm-4-107.24c0-3.65-1-5.18-2.69-5.18H15.39v43h3.83c1.73,0,2.69-1.34,2.69-5.18Z" transform="translate(0.7 -0.52)"/><path d="M58.94,131.36c-10.36,0-18.61-8.82-18.61-21.86V2.06H55.1V110.65c0,2.87,1.53,4.6,3.84,4.6,2.49,0,4-1.73,4-4.6V2.06h14.2V109.5C77.16,122.54,69.3,131.36,58.94,131.36Z" transform="translate(0.7 -0.52)"/><path d="M101,129.83H81.57V2.06H101c7.48,0,16.88,3.84,16.88,20.14V51.56c0,6.14-2.68,10-6.9,13.23,4.22,3.46,6.9,7.29,6.9,13.24v31.66C117.83,126,108.43,129.83,101,129.83Zm2.3-107.24c0-3.65-1-5.18-2.87-5.18H96.54V58.08h3.84c1.91,0,2.87-1.54,2.87-5.18Zm0,55.06c0-3.65-1-5.18-2.87-5.18H96.54v42.2h3.84c1.91,0,2.87-1.53,2.87-5.17Z" transform="translate(0.7 -0.52)"/><path d="M121.29,129.83V2.06h15V129.83Z" transform="translate(0.7 -0.52)"/><path d="M159.08,131.36c-10.36,0-19.37-8.82-19.37-21.86V22.4c0-12.86,9-21.88,19.37-21.88,11.13,0,17.08,9,17.08,21.88V46.76H163.69V21.82c0-2.88-1.16-5.18-4.42-5.18s-4.41,2.3-4.41,5.18v88.25c0,2.88,1.15,5.18,4.41,5.18s4.42-2.3,4.42-5.18V84.94h12.47V109.5C176.16,122.54,170.21,131.36,159.08,131.36Z" transform="translate(0.7 -0.52)"/><path d="M200.71,131.36c-10.36,0-19-8.82-19-21.86V22.4c0-12.86,8.63-21.88,19-21.88,10.56,0,19,9,19,21.88v87.1C219.71,122.54,211.27,131.36,200.71,131.36Zm3.84-110.12c0-2.87-1.34-4.6-3.84-4.6s-3.83,1.73-3.83,4.6v89.41c0,2.87,1.34,4.6,3.83,4.6s3.84-1.73,3.84-4.6Z" transform="translate(0.7 -0.52)"/><path d="M251.17,129.83,238.7,66.71l-2.88-17.26v80.38H223.35V2.06H238.7l10.36,62.16,2.3,17.65V2.06h12.28V129.83Z" transform="translate(0.7 -0.52)"/><path class="cls-1" d="M288.66,148.36H268.33V20.59h20.33c7.68,0,17.08,3.84,17.08,20.14v87.49C305.74,144.52,296.34,148.36,288.66,148.36Zm2.11-107.24c0-3.65-1.15-5.18-3.64-5.18h-3.84V133.2h3.84c2.49,0,3.64-1.53,3.64-5.18Z" transform="translate(0.7 -0.52)"/><path class="cls-1" d="M309.58,148.36V20.59h30.89V35.94H324.35V74.88h10.93V90.23H324.35V133h16.12v15.35Z" transform="translate(0.7 -0.52)"/><path class="cls-1" d="M344.49,148.36V20.59h14.78v113h15.15v14.77Z" transform="translate(0.7 -0.52)"/><path class="cls-1" d="M377.49,148.36V20.59h15V148.36Z" transform="translate(0.7 -0.52)"/><rect class="cls-1" x="268.91" y="1.66" width="125.2" height="14.88"/><rect class="cls-1" y="132.87" width="264.58" height="14.98"/></svg>